<svg id="1a6d75ca-6e88-4b72-86c3-63228756b67c" data-name="Layer 1" xmlns="http://www.w3.org/2000/svg" width="324.15"
     height="144.65" viewBox="0 0 324.15 144.65">
    <title>Saveit</title>
    <text transform="translate(0 113.98)" font-size="100" fill="#474748" font-family="CenturyGothic, Century Gothic">
        Sa
    </text>
    <text transform="translate(202.67 113.98)" font-size="100" fill="#474748"
          font-family="CenturyGothic, Century Gothic">eIt
    </text>
    <path d="M231.25,136.39c0-25.93-20.71-46.94-46.25-46.94s-46.25,21-46.25,46.94a47.17,47.17,0,0,0,10.71,30h0l0,0a46.9,46.9,0,0,0,4.93,5.14L185,203.42l30.58-31.84a46.91,46.91,0,0,0,4.91-5.12l0,0h0A47.17,47.17,0,0,0,231.25,136.39ZM185,173.67a38.33,38.33,0,1,1,38.33-38.33A38.33,38.33,0,0,1,185,173.67Z"
          transform="translate(-23.33 -89.44)" fill="#009689"/>
</svg>
